<svg width="22" height="19" viewBox="0 0 22 19" fill="none" xmlns="http://www.w3.org/2000/svg">
<path d="M18.5 4.75H16V2.375C16 1.06875 15.1 0 14 0H2C0.9 0 0 1.06875 0 2.375V13.0625C0 14.3688 0.9 15.4375 2 15.4375C2 17.4088 3.34 19 5 19C6.66 19 8 17.4088 8 15.4375H14C14 17.4088 15.34 19 17 19C18.66 19 20 17.4088 20 15.4375H21C21.55 15.4375 22 14.9031 22 14.25V10.2956C22 9.785 21.86 9.28625 21.6 8.87063L19.3 5.225C19.11 4.92812 18.81 4.75 18.5 4.75ZM5 16.625C4.45 16.625 4 16.0906 4 15.4375C4 14.7844 4.45 14.25 5 14.25C5.55 14.25 6 14.7844 6 15.4375C6 16.0906 5.55 16.625 5 16.625ZM18.5 6.53125L20.46 9.5H16V6.53125H18.5ZM17 16.625C16.45 16.625 16 16.0906 16 15.4375C16 14.7844 16.45 14.25 17 14.25C17.55 14.25 18 14.7844 18 15.4375C18 16.0906 17.55 16.625 17 16.625Z" fill="#013066" fill-opacity="0.29"/>
</svg>
