<svg width="20" height="19" viewBox="0 0 20 19" fill="none" xmlns="http://www.w3.org/2000/svg">
<path fill-rule="evenodd" clip-rule="evenodd" d="M6.4173 1.25C6.6973 0.66 7.3013 0.25 7.9993 0.25H11.9993C12.6973 0.25 13.3003 0.66 13.5813 1.25C14.2643 1.256 14.7973 1.287 15.2733 1.473C15.8415 1.69527 16.3357 2.07301 16.6993 2.563C17.0663 3.057 17.2393 3.69 17.4753 4.561L18.2173 7.283L18.4973 8.124L18.5213 8.154C19.4223 9.308 18.9933 11.024 18.1353 14.455C17.5893 16.638 17.3173 17.729 16.5033 18.365C15.6893 19 14.5643 19 12.3143 19H7.6843C5.4343 19 4.3093 19 3.4953 18.365C2.6813 17.729 2.4083 16.638 1.8633 14.455C1.0053 11.024 0.5763 9.308 1.4773 8.154L1.5013 8.124L1.7813 7.283L2.5233 4.561C2.7603 3.69 2.9333 3.056 3.2993 2.562C3.66303 2.07238 4.1572 1.695 4.7253 1.473C5.2013 1.287 5.7333 1.255 6.4173 1.25ZM6.4193 2.753C5.7573 2.76 5.4913 2.785 5.2713 2.871C4.96527 2.99068 4.69911 3.19411 4.5033 3.458C4.3273 3.695 4.2233 4.026 3.9333 5.093L3.3633 7.182C4.3833 7 5.7773 7 7.6833 7H12.3143C14.2213 7 15.6143 7 16.6343 7.18L16.0653 5.091C15.7753 4.024 15.6713 3.693 15.4953 3.456C15.2995 3.19211 15.0333 2.98868 14.7273 2.869C14.5073 2.783 14.2413 2.758 13.5793 2.751C13.4373 3.04985 13.2135 3.30232 12.9339 3.47914C12.6542 3.65596 12.3302 3.74987 11.9993 3.75H7.9993C7.66855 3.74996 7.34457 3.6562 7.06493 3.47956C6.78529 3.30293 6.56143 3.05166 6.4193 2.753Z" fill="white"/>
</svg>
