<svg width="29" height="29" viewBox="0 0 29 29" fill="none" xmlns="http://www.w3.org/2000/svg">
<path fill-rule="evenodd" clip-rule="evenodd" d="M5.04117 3.83283C3.625 5.24779 3.625 7.52671 3.625 12.0833V16.9167C3.625 21.4733 3.625 23.7522 5.04117 25.1672C6.45733 26.5821 8.73504 26.5833 13.2917 26.5833H15.7083C20.265 26.5833 22.5439 26.5833 23.9588 25.1672C25.3738 23.751 25.375 21.4733 25.375 16.9167V12.0833C25.375 7.52671 25.375 5.24779 23.9588 3.83283C22.5427 2.41787 20.265 2.41666 15.7083 2.41666H13.2917C8.73504 2.41666 6.45613 2.41666 5.04117 3.83283ZM9.66667 11.1771C9.42631 11.1771 9.19581 11.2726 9.02585 11.4425C8.8559 11.6125 8.76042 11.843 8.76042 12.0833C8.76042 12.3237 8.8559 12.5542 9.02585 12.7241C9.19581 12.8941 9.42631 12.9896 9.66667 12.9896H19.3333C19.5737 12.9896 19.8042 12.8941 19.9741 12.7241C20.1441 12.5542 20.2396 12.3237 20.2396 12.0833C20.2396 11.843 20.1441 11.6125 19.9741 11.4425C19.8042 11.2726 19.5737 11.1771 19.3333 11.1771H9.66667ZM9.66667 16.0104C9.42631 16.0104 9.19581 16.1059 9.02585 16.2758C8.8559 16.4458 8.76042 16.6763 8.76042 16.9167C8.76042 17.157 8.8559 17.3875 9.02585 17.5575C9.19581 17.7274 9.42631 17.8229 9.66667 17.8229H15.7083C15.9487 17.8229 16.1792 17.7274 16.3491 17.5575C16.5191 17.3875 16.6146 17.157 16.6146 16.9167C16.6146 16.6763 16.5191 16.4458 16.3491 16.2758C16.1792 16.1059 15.9487 16.0104 15.7083 16.0104H9.66667Z" fill="#ED164B"/>
</svg>
