<svg width="12" height="16" viewBox="0 0 12 16" fill="none" xmlns="http://www.w3.org/2000/svg">
<path d="M3.28893 0.859404C3.68275 0.740665 4.10537 0.760391 4.48642 0.9153C4.86747 1.07021 5.18397 1.35096 5.38323 1.7108L5.44983 1.8449L6.04563 3.1688C6.2261 3.57071 6.2846 4.01676 6.21388 4.45161C6.14317 4.88646 5.94635 5.29099 5.64783 5.615L5.52813 5.7338L4.58943 6.6095C4.42023 6.7697 4.54713 7.3898 5.15913 8.45001C5.70993 9.40401 6.15813 9.8495 6.37863 9.87381H6.41733L6.46503 9.8648L8.31003 9.3005C8.55799 9.22446 8.82261 9.22145 9.07223 9.29184C9.32186 9.36222 9.54592 9.50303 9.71763 9.6974L9.79953 9.80091L11.0208 11.4929C11.2602 11.8245 11.3795 12.2278 11.359 12.6363C11.3386 13.0448 11.1796 13.4341 10.9083 13.7402L10.7985 13.8536L10.3107 14.3162C9.8727 14.731 9.32475 15.0114 8.73204 15.1238C8.13933 15.2363 7.52678 15.1762 6.96723 14.9507C5.22573 14.2487 3.64353 12.6449 2.20623 10.1555C0.766229 7.65981 0.16773 5.4845 0.43503 3.6215C0.515916 3.05834 0.747816 2.5276 1.1061 2.08565C1.46439 1.6437 1.93568 1.30703 2.46993 1.1114L2.64363 1.0538L3.28893 0.859404Z" fill="#013066"/>
</svg>
