<svg width="18" height="18" viewBox="0 0 18 18" fill="none" xmlns="http://www.w3.org/2000/svg">
<path d="M10.1251 14.0625H2.25008V15.1875H10.1251V14.0625ZM13.967 14.625L15.4182 16.0763L14.6251 16.875L12.3751 14.625L14.6251 12.375L15.4238 13.1681L13.967 14.625ZM10.1251 8.4375H2.25008V9.5625H10.1251V8.4375ZM13.967 9L15.4182 10.4513L14.6251 11.25L12.3751 9L14.6251 6.75L15.4238 7.54313L13.967 9ZM10.1251 2.8125H2.25008V3.9375H10.1251V2.8125ZM13.967 3.375L15.4182 4.82625L14.6251 5.625L12.3751 3.375L14.6251 1.125L15.4238 1.91813L13.967 3.375Z" fill="black"/>
</svg>
