<svg width="18" height="19" viewBox="0 0 18 19" fill="none" xmlns="http://www.w3.org/2000/svg">
<path d="M1 10.5556H7C7.55 10.5556 8 10.0806 8 9.5V1.05556C8 0.475 7.55 0 7 0H1C0.45 0 0 0.475 0 1.05556V9.5C0 10.0806 0.45 10.5556 1 10.5556ZM1 19H7C7.55 19 8 18.525 8 17.9444V13.7222C8 13.1417 7.55 12.6667 7 12.6667H1C0.45 12.6667 0 13.1417 0 13.7222V17.9444C0 18.525 0.45 19 1 19ZM11 19H17C17.55 19 18 18.525 18 17.9444V9.5C18 8.91945 17.55 8.44444 17 8.44444H11C10.45 8.44444 10 8.91945 10 9.5V17.9444C10 18.525 10.45 19 11 19ZM10 1.05556V5.27778C10 5.85833 10.45 6.33333 11 6.33333H17C17.55 6.33333 18 5.85833 18 5.27778V1.05556C18 0.475 17.55 0 17 0H11C10.45 0 10 0.475 10 1.05556Z" fill="#ED164B"/>
</svg>
