<svg width="30" height="30" viewBox="0 0 30 30" fill="none" xmlns="http://www.w3.org/2000/svg">
<rect width="30" height="30" fill="white"/>
<path d="M5.25 6.75C5.096 6.75 4.945 6.7615 4.797 6.7845C5.08473 6.10678 5.5656 5.52877 6.17964 5.12252C6.79369 4.71627 7.51373 4.49976 8.25 4.5H21.75C22.7446 4.5 23.6984 4.89509 24.4016 5.59835C25.1049 6.30161 25.5 7.25544 25.5 8.25V14.4C25.0204 14.155 24.518 13.9576 24 13.8105V8.25C24 7.65326 23.7629 7.08097 23.341 6.65901C22.919 6.23705 22.3467 6 21.75 6H8.25C7.4805 6 6.801 6.387 6.3945 6.975C6.03139 6.82584 5.64255 6.7494 5.25 6.75ZM13.8105 24C13.9595 24.524 14.156 25.024 14.4 25.5H8.25C7.25544 25.5 6.30161 25.1049 5.59835 24.4016C4.89509 23.6984 4.5 22.7446 4.5 21.75V12.6555C4.99193 12.7825 5.50807 12.7825 6 12.6555V21.75C6 22.3467 6.23705 22.919 6.65901 23.341C7.08097 23.7629 7.65326 24 8.25 24H13.8105ZM14.4 18C14.676 17.462 15.0045 16.962 15.3855 16.5H11.25C11.0511 16.5 10.8603 16.579 10.7197 16.7197C10.579 16.8603 10.5 17.0511 10.5 17.25C10.5 17.4489 10.579 17.6397 10.7197 17.7803C10.8603 17.921 11.0511 18 11.25 18H14.4ZM5.25 8.25C4.85218 8.25 4.47064 8.40804 4.18934 8.68934C3.90804 8.97064 3.75 9.35218 3.75 9.75C3.75 10.1478 3.90804 10.5294 4.18934 10.8107C4.47064 11.092 4.85218 11.25 5.25 11.25C5.64782 11.25 6.02936 11.092 6.31066 10.8107C6.59196 10.5294 6.75 10.1478 6.75 9.75C6.75 9.35218 6.59196 8.97064 6.31066 8.68934C6.02936 8.40804 5.64782 8.25 5.25 8.25ZM11.25 12C11.0511 12 10.8603 12.079 10.7197 12.2197C10.579 12.3603 10.5 12.5511 10.5 12.75C10.5 12.9489 10.579 13.1397 10.7197 13.2803C10.8603 13.421 11.0511 13.5 11.25 13.5H18.75C18.9489 13.5 19.1397 13.421 19.2803 13.2803C19.421 13.1397 19.5 12.9489 19.5 12.75C19.5 12.5511 19.421 12.3603 19.2803 12.2197C19.1397 12.079 18.9489 12 18.75 12H11.25ZM28.5 21.75C28.5 23.5402 27.7888 25.2571 26.523 26.523C25.2571 27.7888 23.5402 28.5 21.75 28.5C19.9598 28.5 18.2429 27.7888 16.977 26.523C15.7112 25.2571 15 23.5402 15 21.75C15 19.9598 15.7112 18.2429 16.977 16.977C18.2429 15.7112 19.9598 15 21.75 15C23.5402 15 25.2571 15.7112 26.523 16.977C27.7888 18.2429 28.5 19.9598 28.5 21.75ZM18.2205 21.219L18.216 21.2235C18.0787 21.3627 18.0012 21.55 18 21.7455V21.7545C18.0012 21.9515 18.0799 22.14 18.219 22.2795L21.219 25.2795C21.2886 25.3492 21.3713 25.4046 21.4623 25.4423C21.5534 25.4801 21.6509 25.4996 21.7495 25.4997C21.848 25.4997 21.9456 25.4804 22.0367 25.4427C22.1278 25.4051 22.2105 25.3499 22.2803 25.2803C22.35 25.2106 22.4053 25.1279 22.4431 25.0369C22.4809 24.9459 22.5003 24.8483 22.5004 24.7498C22.5005 24.6512 22.4811 24.5536 22.4435 24.4626C22.4058 24.3715 22.3506 24.2887 22.281 24.219L20.5605 22.5H24.75C24.9489 22.5 25.1397 22.421 25.2803 22.2803C25.421 22.1397 25.5 21.9489 25.5 21.75C25.5 21.5511 25.421 21.3603 25.2803 21.2197C25.1397 21.079 24.9489 21 24.75 21H20.5605L22.281 19.281C22.4218 19.1402 22.5009 18.9492 22.5009 18.75C22.5009 18.5508 22.4218 18.3598 22.281 18.219C22.1402 18.0782 21.9492 17.9991 21.75 17.9991C21.5508 17.9991 21.3598 18.0782 21.219 18.219L18.2205 21.219Z" fill="#ED164B"/>
</svg>
