<svg width="70" height="61" viewBox="0 0 70 61" fill="none" xmlns="http://www.w3.org/2000/svg">
<path d="M43.3822 7.9431L36.2169 10.5555C33.3302 2.63776 24.5791 -1.43715 16.6614 1.44953C8.7437 4.33621 4.66878 13.0873 7.55546 21.005L0.390111 23.6174C-3.55083 25.0542 -5.59967 29.4542 -4.16286 33.3951L11.5114 76.3872C12.9482 80.3282 17.3482 82.377 21.2891 80.9402L64.2813 65.2659C68.2222 63.8291 70.271 59.4291 68.8342 55.4882L53.16 12.4961C51.7232 8.55513 47.3232 6.50629 43.3822 7.9431ZM19.9456 32.7233C20.664 34.6938 19.6396 36.8938 17.6691 37.6122C15.6986 38.3306 13.4986 37.3062 12.7802 35.3357L10.1678 28.1703L17.3332 25.558L19.9456 32.7233ZM19.2738 8.61488C23.2147 7.17807 27.6147 9.22691 29.0515 13.1679L14.7208 18.3926C13.284 14.4517 15.3328 10.0517 19.2738 8.61488ZM41.4416 24.8862C42.16 26.8567 41.1356 29.0566 39.1651 29.775C37.1947 30.4935 34.9947 29.469 34.2763 27.4986L31.6639 20.3332L38.8293 17.7208L41.4416 24.8862Z" fill="white" fill-opacity="0.13"/>
</svg>
