<svg width="20" height="21" viewBox="0 0 20 21" fill="none" xmlns="http://www.w3.org/2000/svg">
<path d="M5.99835 16.8C4.89865 16.8 4.0089 17.745 4.0089 18.9C4.0089 20.055 4.89865 21 5.99835 21C7.09805 21 7.9978 20.055 7.9978 18.9C7.9978 17.745 7.09805 16.8 5.99835 16.8ZM0 1.05C0 1.6275 0.449876 2.1 0.999725 2.1H1.99945L5.59846 10.0695L4.24883 12.6315C3.51903 14.0385 4.47877 15.75 5.99835 15.75H16.9953C17.5452 15.75 17.995 15.2775 17.995 14.7C17.995 14.1225 17.5452 13.65 16.9953 13.65H5.99835L7.09805 11.55H14.546C15.2958 11.55 15.9556 11.1195 16.2955 10.4685L19.8745 3.654C19.9588 3.49485 20.002 3.31535 19.9999 3.13326C19.9978 2.95117 19.9505 2.77281 19.8627 2.61583C19.7748 2.45884 19.6494 2.32867 19.499 2.2382C19.3485 2.14773 19.1781 2.10009 19.0048 2.1H4.20884L3.53903 0.598501C3.45868 0.419273 3.33138 0.267794 3.17203 0.161799C3.01269 0.0558049 2.82789 -0.000318004 2.63927 1.35539e-06H0.999725C0.449876 1.35539e-06 0 0.472501 0 1.05ZM15.9956 16.8C14.8959 16.8 14.0061 17.745 14.0061 18.9C14.0061 20.055 14.8959 21 15.9956 21C17.0953 21 17.995 20.055 17.995 18.9C17.995 17.745 17.0953 16.8 15.9956 16.8Z" fill="#013066" fill-opacity="0.29"/>
</svg>
