<svg width="25" height="41" viewBox="0 0 25 41" fill="none" xmlns="http://www.w3.org/2000/svg">
<path d="M19.7708 0.791667H5.43742C4.24947 0.791667 3.11018 1.26358 2.27017 2.10358C1.43016 2.94359 0.958252 4.08289 0.958252 5.27083V35.7292C0.958252 36.9171 1.43016 38.0564 2.27017 38.8964C3.11018 39.7364 4.24947 40.2083 5.43742 40.2083H19.7708C20.9587 40.2083 22.098 39.7364 22.938 38.8964C23.778 38.0564 24.2499 36.9171 24.2499 35.7292V5.27083C24.2499 4.08289 23.778 2.94359 22.938 2.10358C22.098 1.26358 20.9587 0.791667 19.7708 0.791667ZM12.6041 38.4167C11.117 38.4167 9.91658 37.2163 9.91658 35.7292C9.91658 34.2421 11.117 33.0417 12.6041 33.0417C14.0912 33.0417 15.2916 34.2421 15.2916 35.7292C15.2916 37.2163 14.0912 38.4167 12.6041 38.4167ZM20.6666 31.25H4.54159V6.16667H20.6666V31.25Z" fill="#8B8B8B"/>
</svg>
