<svg width="29" height="29" viewBox="0 0 29 29" fill="none" xmlns="http://www.w3.org/2000/svg">
<path d="M19.3333 2.41666H9.66667C9.02573 2.41666 8.41104 2.67128 7.95783 3.12449C7.50461 3.5777 7.25 4.19239 7.25 4.83333V24.1667C7.25 24.8076 7.50461 25.4223 7.95783 25.8755C8.41104 26.3287 9.02573 26.5833 9.66667 26.5833H19.3333C19.9743 26.5833 20.589 26.3287 21.0422 25.8755C21.4954 25.4223 21.75 24.8076 21.75 24.1667V4.83333C21.75 4.19239 21.4954 3.5777 21.0422 3.12449C20.589 2.67128 19.9743 2.41666 19.3333 2.41666ZM15.7083 25.375H13.2917V24.1667H15.7083V25.375ZM19.3333 22.9583H9.66667V6.04166H19.3333V22.9583Z" fill="#ED164B"/>
</svg>
