<svg width="88" height="61" viewBox="0 0 88 61" fill="none" xmlns="http://www.w3.org/2000/svg">
<path d="M43.8314 68.4625C40.1254 70.1544 38.5116 74.5564 40.204 78.2634C41.8964 81.9704 46.2796 83.6345 49.9856 81.9425C53.6916 80.2506 55.3391 75.8333 53.6467 72.1263C51.9543 68.4192 47.5374 66.7706 43.8314 68.4625ZM0.538557 27.1411C1.38476 28.9946 3.5932 29.819 5.4462 28.973L8.81528 27.4349L32.6216 47.476L31.8274 57.7753C31.4297 63.4139 37.1718 67.4305 42.2928 65.0925L79.3527 48.173C81.2057 47.3271 82.0295 45.1184 81.1833 43.2649C80.3371 41.4114 78.1286 40.587 76.2756 41.433L39.2157 58.3525L39.8446 49.9205L64.9443 38.4614C67.4711 37.3078 69.0639 34.911 69.2555 32.2986L71.3315 4.9207C71.3823 4.28026 71.2649 3.63764 70.9911 3.05642C70.7173 2.47521 70.2965 1.97554 69.7704 1.60688C69.2442 1.23821 68.631 1.01332 67.9914 0.954449C67.3517 0.895586 66.7078 1.00479 66.1234 1.27125L16.261 24.0356L11.8035 20.247C11.2701 19.7954 10.6192 19.5051 9.92687 19.4101C9.23456 19.315 8.52955 19.4192 7.89438 19.7105L2.36909 22.233C0.516089 23.079 -0.307648 25.2876 0.538557 27.1411ZM77.5222 53.0812C73.8162 54.7731 72.2024 59.1751 73.8949 62.8821C75.5873 66.5891 79.9705 68.2532 83.6764 66.5612C87.3824 64.8693 89.0299 60.452 87.3375 56.7449C85.6451 53.0379 81.2282 51.3892 77.5222 53.0812Z" fill="white" fill-opacity="0.13"/>
</svg>
