<svg width="19" height="19" viewBox="0 0 19 19" fill="none" xmlns="http://www.w3.org/2000/svg">
<path d="M16.7636 10.4302C16.8043 10.1333 16.8246 9.82656 16.8246 9.5C16.8246 9.18334 16.8043 8.86667 16.7534 8.56979L18.8186 7.00625C18.9076 6.9349 18.9684 6.83574 18.9906 6.72567C19.0129 6.6156 18.9952 6.50143 18.9406 6.40261L16.9874 3.11719C16.9299 3.0178 16.8381 2.94142 16.7282 2.90157C16.6184 2.86172 16.4976 2.86098 16.3872 2.89948L13.9558 3.84948C13.4472 3.47344 12.908 3.15677 12.3078 2.91927L11.9415 0.405732C11.9235 0.292454 11.8643 0.189218 11.7747 0.114771C11.6851 0.0403236 11.5711 -0.000397322 11.4532 2.92263e-06H7.54676C7.30261 2.92263e-06 7.10932 0.168232 7.06863 0.405732L6.70239 2.91927C6.10218 3.15677 5.55283 3.48334 5.05435 3.84948L2.62298 2.89948C2.39917 2.82031 2.14484 2.89948 2.02276 3.11719L0.0796992 6.40261C-0.0423781 6.61042 -0.00168575 6.86771 0.201776 7.00625L2.26692 8.56979C2.21605 8.86667 2.17536 9.19323 2.17536 9.5C2.17536 9.80677 2.19571 10.1333 2.24657 10.4302L0.18143 11.9938C0.0924399 12.0651 0.0316349 12.1643 0.00937502 12.2743C-0.0128849 12.3844 0.00477758 12.4986 0.059353 12.5974L2.01259 15.8828C2.13467 16.1005 2.389 16.1698 2.6128 16.1005L5.04418 15.1505C5.55283 15.5266 6.09201 15.8432 6.69222 16.0807L7.05845 18.5943C7.10932 18.8318 7.30261 19 7.54676 19H11.4532C11.6974 19 11.9009 18.8318 11.9314 18.5943L12.2976 16.0807C12.8978 15.8432 13.4472 15.5266 13.9456 15.1505L16.377 16.1005C16.6008 16.1797 16.8552 16.1005 16.9772 15.8828L18.9305 12.5974C19.0525 12.3797 19.0017 12.1323 18.8084 11.9938L16.7636 10.4302ZM9.5 13.0625C7.48572 13.0625 5.83768 11.4594 5.83768 9.5C5.83768 7.54063 7.48572 5.9375 9.5 5.9375C11.5143 5.9375 13.1623 7.54063 13.1623 9.5C13.1623 11.4594 11.5143 13.0625 9.5 13.0625Z" fill="#013066" fill-opacity="0.29"/>
</svg>
