<svg width="7" height="5" viewBox="0 0 7 5" fill="none" xmlns="http://www.w3.org/2000/svg">
<path d="M5.60182 1.03208L3.50016 3.13375L1.39849 1.03208C1.34834 0.981931 1.28881 0.942151 1.22328 0.915011C1.15776 0.887871 1.08754 0.873901 1.01662 0.873901C0.945695 0.873901 0.875468 0.887871 0.809946 0.915011C0.744424 0.942151 0.684889 0.981931 0.63474 1.03208C0.584592 1.08223 0.544812 1.14176 0.517672 1.20729C0.490531 1.27281 0.476562 1.34303 0.476563 1.41395C0.476563 1.48488 0.490531 1.5551 0.517672 1.62062C0.544812 1.68615 0.584592 1.74568 0.63474 1.79583L3.12099 4.28208C3.33224 4.49333 3.67349 4.49333 3.88474 4.28208L6.37099 1.79583C6.4212 1.74572 6.46104 1.68619 6.48822 1.62067C6.51541 1.55514 6.5294 1.4849 6.5294 1.41395C6.5294 1.34301 6.51541 1.27277 6.48822 1.20724C6.46104 1.14171 6.4212 1.08219 6.37099 1.03208C6.15974 0.826246 5.81307 0.820829 5.60182 1.03208Z" fill="black"/>
</svg>
