<svg width="88" height="64" viewBox="0 0 88 64" fill="none" xmlns="http://www.w3.org/2000/svg">
<path d="M64.6082 10.4418L54.8864 13.4096L52.553 5.76623C51.2697 1.56236 46.7198 -0.808734 42.4422 0.49712L-4.22254 14.7428C-8.50014 16.0486 -10.95 20.5566 -9.66665 24.7604L0.833415 59.1557C2.11676 63.3595 6.66662 65.7306 10.9442 64.4248C12.8809 70.7688 19.6551 74.2991 26.1104 72.3284C32.5657 70.3578 36.2133 63.646 34.2766 57.302L57.609 50.1791C59.5457 56.5231 66.3199 60.0534 72.7752 58.0828C79.2305 56.1121 82.878 49.4003 80.9414 43.0563L84.8301 41.8691C86.9689 41.2162 88.1938 38.9622 87.5521 36.8603L83.6671 24.1341C83.1654 22.4907 82.131 21.0518 80.7116 20.0229L68.1858 11.0207C67.1553 10.2909 65.8137 10.0737 64.6082 10.4418ZM23.7771 64.6851C21.6383 65.338 19.3634 64.1524 18.7217 62.0505C18.08 59.9486 19.3049 57.6946 21.4437 57.0417C23.5825 56.3887 25.8575 57.5743 26.4991 59.6762C27.1408 61.7782 25.9159 64.0321 23.7771 64.6851ZM66.3582 16.1743L76.8968 23.4017L59.5531 28.6964L56.6364 19.1421L66.3582 16.1743ZM70.4418 50.4394C68.303 51.0923 66.0281 49.9068 65.3864 47.8048C64.7448 45.7029 65.9697 43.4489 68.1085 42.796C70.2473 42.1431 72.5222 43.3286 73.1639 45.4306C73.8056 47.5325 72.5806 49.7865 70.4418 50.4394Z" fill="white" fill-opacity="0.13"/>
</svg>
